# xmcd
#
# Track frame offsets: 
#        187
#        38527
#        75055
#        99562
#        152437
#        210112
#        239287
#        264187
#
# Disc length: 4659 seconds
#
# Revision: 2
# Processed by: cddbd v1.5.2PL0 Copyright (c) Steve Scherf et al.
# Submitted via: ExactAudioCopy v0.95b4
#
DISCID=44123108
DTITLE=Various Artist - Berühmte Orgelwerke 3
DYEAR=1900
DGENRE=Classical
TTITLE0=Joseph Haydn - Orgelkonzert C-Dur Allegro moderato
TTITLE1=Joseph Haydn - Orgelkonzert C-Dur Largo
TTITLE2=Joseph Haydn - Orgelkonzert C-Dur Allegro molto
TTITLE3=Wolfgang Amadeus Mozart - Fantasie KV 594
TTITLE4=Johann Sebastian Bach - Orgelkonzert Nr. 2, BWV 593
TTITLE5=Anton Brunckhorst - Präludium
TTITLE6=Matthias Weckmann - Fantasia
TTITLE7=Michael Praetorius - "Christ unser Herr zum Jordan kam"
EXTD=
EXTT0=
EXTT1=
EXTT2=
EXTT3=
EXTT4=
EXTT5=
EXTT6=
EXTT7=
PLAYORDER=
